<?xml version="1.0" standalone="no"?>
<!DOCTYPE svg PUBLIC "-//W3C//DTD SVG 20010904//EN"
 "http://www.w3.org/TR/2001/REC-SVG-20010904/DTD/svg10.dtd">
<svg version="1.0" xmlns="http://www.w3.org/2000/svg"
 width="400.000000pt" height="400.000000pt" viewBox="0 0 400.000000 400.000000"
 preserveAspectRatio="xMidYMid meet">
<metadata>
Created by potrace 1.11, written by Peter Selinger 2001-2013
</metadata>
<g transform="translate(0.000000,400.000000) scale(0.100000,-0.100000)"
fill="#000000" stroke="none">
<path d="M1944 3984 c-18 -8 -42 -25 -54 -36 -12 -11 -56 -38 -98 -59 -71 -35
-167 -104 -247 -178 -70 -63 -240 -165 -294 -176 -9 -2 -45 -11 -81 -20 -88
-24 -264 -29 -365 -10 -173 31 -261 64 -403 153 -79 50 -97 58 -68 30 7 -7
102 -98 211 -203 108 -104 252 -244 321 -310 l123 -120 -28 -31 -28 -31 -169
164 c-93 91 -242 237 -331 325 -90 89 -163 158 -163 154 0 -4 18 -34 41 -67
56 -83 121 -235 135 -314 2 -16 10 -63 17 -104 35 -206 -19 -475 -130 -650
-20 -31 -76 -109 -125 -174 -49 -65 -99 -138 -109 -163 -11 -24 -24 -44 -30
-44 -5 0 -22 -20 -38 -45 -22 -35 -28 -55 -26 -85 3 -40 33 -92 62 -109 9 -5
17 -15 19 -23 3 -22 49 -93 119 -183 147 -188 218 -325 245 -473 32 -181 31
-310 -5 -457 -9 -33 -17 -67 -19 -76 -12 -49 -73 -175 -112 -234 -25 -37 -44
-69 -42 -70 3 -3 312 297 566 548 l92 92 30 -31 31 -30 -223 -216 c-438 -424
-456 -442 -413 -417 22 12 47 28 55 34 50 40 223 116 295 130 57 11 79 15 120
22 89 16 266 6 369 -21 123 -32 262 -107 356 -193 85 -77 167 -136 250 -178
41 -21 85 -49 96 -61 29 -30 93 -48 138 -40 20 4 51 20 69 35 17 16 72 49 120
75 49 25 94 52 101 58 14 14 48 42 166 137 74 60 201 134 263 152 135 40 313
57 412 38 28 -5 64 -11 80 -14 53 -7 141 -33 201 -60 62 -27 187 -98 217 -123
35 -30 16 1 -25 40 -24 22 -139 133 -256 247 -117 113 -247 238 -289 278 l-75
72 23 30 c13 16 28 30 32 30 4 1 94 -84 200 -188 357 -352 459 -451 464 -451
5 0 -4 15 -44 71 -60 84 -125 246 -139 349 -3 19 -9 46 -13 60 -11 34 -6 248
8 330 9 56 36 151 58 200 3 8 7 17 8 20 10 39 110 188 231 345 26 33 54 76 63
95 9 19 29 49 45 65 34 36 46 65 46 108 0 33 -32 96 -55 109 -7 5 -23 27 -34
50 -11 24 -43 72 -71 108 -153 198 -231 329 -265 445 -38 130 -55 352 -34 444
4 20 11 52 14 71 18 108 94 283 157 363 18 22 27 38 21 36 -12 -4 -327 -307
-537 -517 l-119 -118 -30 28 -31 28 29 32 c17 18 33 35 37 38 3 3 99 95 213
205 113 110 247 239 297 288 50 48 88 87 84 87 -4 0 -32 -16 -63 -36 -108 -69
-229 -124 -308 -139 -228 -45 -356 -45 -509 0 -137 41 -206 82 -409 245 -58
47 -136 100 -174 119 -37 19 -79 45 -93 57 -30 27 -91 54 -122 54 -13 0 -37
-7 -54 -16z"/>
</g>
</svg>
